<?xml version="1.0" encoding="UTF-8" standalone="no"?>
<svg
   id="Capa_1"
   version="1.1"
   viewBox="0 0 45.9 45.9"
   sodipodi:docname="pictos-iso.svg"
   inkscape:version="1.4.2 (ebf0e940, 2025-05-08)"
   xmlns:inkscape="http://www.inkscape.org/namespaces/inkscape"
   xmlns:sodipodi="http://sodipodi.sourceforge.net/DTD/sodipodi-0.dtd"
   xmlns="http://www.w3.org/2000/svg"
   xmlns:svg="http://www.w3.org/2000/svg">
  <sodipodi:namedview
     id="namedview1"
     pagecolor="#ffffff"
     bordercolor="#000000"
     borderopacity="0.25"
     inkscape:showpageshadow="2"
     inkscape:pageopacity="0.0"
     inkscape:pagecheckerboard="0"
     inkscape:deskcolor="#d1d1d1"
     inkscape:zoom="9.836265"
     inkscape:cx="24.552002"
     inkscape:cy="24.094512"
     inkscape:window-width="1512"
     inkscape:window-height="949"
     inkscape:window-x="0"
     inkscape:window-y="33"
     inkscape:window-maximized="0"
     inkscape:current-layer="Capa_1" />
  <!-- Generator: Adobe Illustrator 30.1.0, SVG Export Plug-In . SVG Version: 2.1.1 Build 136)  -->
  <defs
     id="defs1">
    <style
       id="style1">
      .st0 {
        fill: #3c0877;
      }
    </style>
  </defs>
  <path
     d="m 23.410324,13.143028 c -6.4,0 -9.199219,6.40039 -9.199219,6.40039 0,1e-6 2.799219,6.400391 9.199219,6.400391 6.4,0 9.199219,-6.400391 9.199219,-6.400391 0,1e-6 -2.799219,-6.40039 -9.199219,-6.40039 z"
     style="fill:#ffffff;stroke-width:2.00001;stroke-linecap:round;stroke-linejoin:round;stroke-opacity:0.527778;paint-order:stroke markers fill"
     id="path2"
     inkscape:label="ojo" />
  <circle
     class="st0"
     cx="23.391676"
     cy="19.223303"
     r="3.0999999"
     id="circle1"
     style="fill:#1f053f;fill-opacity:1"
     inkscape:label="pupila" />
  <path
     class="st0"
     d="m 23.091677,5.4233045 c -9.4,0 -17.1,6.2999995 -17.1,14.0999995 0,7.8 0,0 0,0 v 0 17.7 c 0,2.1 1.7,3.9 3.9,3.9 h 1.6 c 2.1,0 3.9,-1.7 3.9,-3.9 v -5.3 c 2.3,1 4.9,1.5 7.7,1.5 9.4,0 17.1,-6.3 17.1,-14.1 0,-7.8 -7.7,-13.8999995 -17.1,-13.8999995 z m 0.3,20.4999995 c -6.4,0 -9.2,-6.4 -9.2,-6.4 0,0 2.8,-6.4 9.2,-6.4 6.4,0 9.2,6.4 9.2,6.4 0,0 -2.8,6.4 -9.2,6.4 z"
     id="path1"
     style="fill:#40069e;fill-opacity:1"
     sodipodi:nodetypes="ssccsssscsssscscs"
     inkscape:label="P_de_PICTOS" />
</svg>
