<?xml version="1.0" encoding="UTF-8"?>
<svg id="Capa_1" xmlns="http://www.w3.org/2000/svg" version="1.1" viewBox="0 0 45.9 45.9">
  <!-- Generator: Adobe Illustrator 30.1.0, SVG Export Plug-In . SVG Version: 2.1.1 Build 136)  -->
  <defs>
    <style>
      .st0 {
        fill: #3c0877;
      }
    </style>
  </defs>
  <circle class="st0" cx="23.9" cy="17.8" r="3.1"/>
  <path class="st0" d="M23.6,4c-9.4,0-17.1,6.3-17.1,14.1s0,0,0,0c0,0,0,0,0,0v19.7c0,2.1,1.7,3.9,3.9,3.9h1.6c2.1,0,3.9-1.7,3.9-3.9v-7.3c2.3,1,4.9,1.5,7.7,1.5,9.4,0,17.1-6.3,17.1-14.1S33,4,23.6,4ZM23.9,24.5c-6.4,0-9.2-6.4-9.2-6.4,0,0,2.8-6.4,9.2-6.4s9.2,6.4,9.2,6.4c0,0-2.8,6.4-9.2,6.4Z"/>
</svg>